<svg xmlns="http://www.w3.org/2000/svg" width="24" height="18.89" viewBox="0 0 24 18.89">
  <defs>
    <style>
      .cls-1 {
        fill: #be0101;
      }
    </style>
  </defs>
  <g id="_685655" data-name="685655" transform="translate(0 -44.8)">
    <g id="Group_17493" data-name="Group 17493" transform="translate(0 44.8)">
      <g id="Group_17492" data-name="Group 17492" transform="translate(0 0)">
        <path id="Path_104625" data-name="Path 104625" class="cls-1" d="M23.2,47.743a2.58,2.58,0,0,0-1.894-.8H17.521V46.9a2.048,2.048,0,0,0-.616-1.483,2.087,2.087,0,0,0-1.483-.616H8.578a2.1,2.1,0,0,0-2.122,2.1v.046H2.692a2.58,2.58,0,0,0-1.894.8A2.712,2.712,0,0,0,0,49.637V61a2.58,2.58,0,0,0,.8,1.894,2.712,2.712,0,0,0,1.894.8H21.308a2.58,2.58,0,0,0,1.894-.8A2.712,2.712,0,0,0,24,61V49.637A2.58,2.58,0,0,0,23.2,47.743ZM22.814,61h-.023a1.48,1.48,0,0,1-1.483,1.483H2.692A1.48,1.48,0,0,1,1.209,61V49.637a1.48,1.48,0,0,1,1.483-1.483H7.1a.613.613,0,0,0,.616-.616v-.662a.859.859,0,0,1,.89-.89h6.821a.859.859,0,0,1,.89.89v.662a.613.613,0,0,0,.616.616h4.4a1.48,1.48,0,0,1,1.483,1.483Z" transform="translate(0 -44.8)"/>
        <path id="Path_104626" data-name="Path 104626" class="cls-1" d="M117.612,130.8a5.608,5.608,0,1,0,3.97,1.643A5.622,5.622,0,0,0,117.612,130.8Zm3.1,8.738a4.406,4.406,0,0,1-6.205,0,4.361,4.361,0,0,1-1.278-3.1,4.458,4.458,0,0,1,1.278-3.1,4.361,4.361,0,0,1,3.1-1.278,4.458,4.458,0,0,1,3.1,1.278,4.361,4.361,0,0,1,1.278,3.1A4.269,4.269,0,0,1,120.715,139.538Z" transform="translate(-105.612 -125.895)"/>
        <circle id="Ellipse_634" data-name="Ellipse 634" class="cls-1" cx="1.118" cy="1.118" r="1.118" transform="translate(19.004 4.882)"/>
      </g>
    </g>
  </g>
</svg>
